<?xml version="1.0" encoding="UTF-8" standalone="no"?>
<!-- Created with Inkscape (http://www.inkscape.org/) -->
<svg xmlns:dc="http://purl.org/dc/elements/1.1/" xmlns:cc="http://web.resource.org/cc/" xmlns:rdf="http://www.w3.org/1999/02/22-rdf-syntax-ns#" xmlns:svg="http://www.w3.org/2000/svg" xmlns="http://www.w3.org/2000/svg" xmlns:sodipodi="http://sodipodi.sourceforge.net/DTD/sodipodi-0.dtd" xmlns:inkscape="http://www.inkscape.org/namespaces/inkscape" id="svg2" sodipodi:version="0.32" inkscape:version="0.45.1" width="21" height="20" version="1.0" sodipodi:docbase="C:\Users\Trenton Cronholm\Desktop" sodipodi:docname="Gothic_z.svg" inkscape:output_extension="org.inkscape.output.svg.inkscape">
  <metadata id="metadata7">
    <rdf:RDF>
      <cc:Work rdf:about="">
        <dc:format>image/svg+xml</dc:format>
        <dc:type rdf:resource="http://purl.org/dc/dcmitype/StillImage"/>
      </cc:Work>
    </rdf:RDF>
  </metadata>
  <defs id="defs5"/>
  <sodipodi:namedview inkscape:window-height="718" inkscape:window-width="1024" inkscape:pageshadow="2" inkscape:pageopacity="0.0" guidetolerance="10.0" gridtolerance="10.0" objecttolerance="10.0" borderopacity="1.0" bordercolor="#666666" pagecolor="#ffffff" id="base" inkscape:zoom="26" inkscape:cx="3.7971006" inkscape:cy="10" inkscape:window-x="-8" inkscape:window-y="-8" inkscape:current-layer="svg2"/>
  <path style="fill:#000000;fill-rule:evenodd;stroke:none;stroke-width:1px;stroke-linecap:butt;stroke-linejoin:miter;stroke-opacity:1;fill-opacity:1" d="M 15.846154,16.961538 C 16.453847,16.969232 17.145654,17.103097 16.961538,15.923077 L 15.653847,14.346154 C 15.653847,14.346154 14.971154,13.365385 13.961538,13.076923 C 12.951923,12.788462 11.615385,13.192308 11.615385,13.192308 L 9.7307696,13.576924 L 14.923077,3.7692308 C 15.991685,2.5654889 15.886745,1.9243057 14.923077,2 L 10.038462,2.0384615 C 9.2930754,2.0550377 8.867047,2.2565694 8.0769231,3.0769231 C 5.4461702,0.39381865 4.4984408,4.0105884 6,3.9615385 L 10.807692,4 L 4.8846154,15.038462 C 4.9278083,15.662612 5.3158069,15.991213 6.0769231,16 L 7.2307692,15.961538 C 8.1372494,14.821639 10.78581,15.133475 12.807692,14.923077 L 15.846154,16.961538 z " id="path2161" sodipodi:nodetypes="ccczccccccccccccc"/>
</svg>